<svg width="55" height="55" viewBox="0 0 55 55" fill="none" xmlns="http://www.w3.org/2000/svg">
<circle cx="27.5" cy="27.5" r="27" stroke="white"/>
<path d="M32.599 25.8088C32.9767 26.1865 33.5891 26.1865 33.9667 25.8088C34.3444 25.4312 34.3444 24.8188 33.9667 24.4412L28.8088 19.2833C28.4312 18.9056 27.8188 18.9056 27.4412 19.2833L22.2833 24.4412C21.9056 24.8188 21.9056 25.4312 22.2833 25.8088C22.6609 26.1865 23.2733 26.1865 23.651 25.8088L28.125 21.3348L32.599 25.8088Z" fill="white"/>
<path d="M27.158 20.6118V38.0197C27.158 38.5538 27.5909 38.9868 28.1251 38.9868C28.6592 38.9868 29.0922 38.5538 29.0922 38.0197V20.6118C29.0922 20.0777 28.6592 19.6447 28.1251 19.6447C27.5909 19.6447 27.158 20.0777 27.158 20.6118Z" fill="white"/>
</svg>
